<?xml version="1.0" standalone="no"?>
<!DOCTYPE svg PUBLIC "-//W3C//DTD SVG 20010904//EN"
 "http://www.w3.org/TR/2001/REC-SVG-20010904/DTD/svg10.dtd">
<svg version="1.0" xmlns="http://www.w3.org/2000/svg"
 width="47.000000pt" height="30.000000pt" viewBox="0 0 470.000000 496.000000"
 preserveAspectRatio="xMidYMid meet">
<metadata>
Created by potrace 1.15, written by Peter Selinger 2001-2017
</metadata>
<g transform="translate(0.000000,496.000000) scale(0.100000,-0.100000)"
fill="#ffffff" stroke="none">
<path d="M2180 4896 c-263 -49 -478 -183 -644 -399 -373 -488 -269 -1233 222
-1589 162 -117 305 -302 395 -513 55 -128 53 -135 -10 -50 -66 88 -183 204
-254 252 -118 81 -268 140 -411 163 -104 17 -310 8 -404 -18 -409 -111 -710
-462 -775 -902 -18 -124 -7 -332 24 -451 99 -379 373 -669 732 -774 165 -49
393 -46 565 7 203 62 418 224 542 407 28 42 49 69 46 61 -92 -254 -198 -422
-369 -584 -107 -102 -176 -151 -307 -215 -141 -71 -285 -114 -419 -127 -40 -3
-73 -11 -73 -15 0 -5 564 -9 1290 -9 853 0 1290 3 1290 10 0 6 -17 10 -39 10
-21 0 -77 7 -124 15 -379 66 -703 301 -895 647 -35 63 -105 227 -116 272 -5
19 14 -3 52 -60 138 -206 354 -361 592 -426 115 -31 365 -33 480 -4 191 49
372 154 501 292 330 350 398 904 163 1333 -154 282 -431 482 -736 531 -107 17
-310 8 -411 -19 -230 -61 -452 -221 -588 -424 -32 -49 -59 -86 -59 -83 0 17
59 164 95 237 92 187 193 316 285 365 149 78 282 203 382 359 68 105 110 201
146 334 23 87 26 113 26 281 0 168 -3 194 -26 281 -70 260 -208 470 -407 620
-214 160 -509 232 -761 185z"/>
</g>
</svg>
